<svg width="115.39999999999999px" height="138.72000122070312px" xmlns="http://www.w3.org/2000/svg" viewBox="192.3 5.6399993896484375 115.39999999999999 138.72000122070312" style="background: rgb(255, 255, 255) none repeat scroll 0% 0%;" preserveAspectRatio="xMidYMid"><defs><filter id="editing-hole" x="-100%" y="-100%" width="300%" height="300%"><feFlood flood-color="#000000" result="black"></feFlood><feMorphology operator="dilate" radius="2" in="SourceGraphic" result="erode"></feMorphology><feGaussianBlur in="erode" stdDeviation="4" result="blur"></feGaussianBlur><feOffset in="blur" dx="2" dy="2" result="offset"></feOffset><feComposite operator="atop" in="offset" in2="black" result="merge"></feComposite><feComposite operator="in" in="merge" in2="SourceGraphic" result="inner-shadow"></feComposite></filter></defs><g filter="url(#editing-hole)"><g transform="translate(217.1005859375, 99.30514907836914)"><path d="M4.26-39.81L4.26-39.81L4.26-39.81Q3.52-39.23 2.75-38.72L2.75-38.72L2.75-38.72Q1.98-38.21 0.99-38.21L0.99-38.21L0.99-38.21Q0-38.21 0-39.94L0-39.94L0-39.94Q0-43.46 3.26-45.70L3.26-45.70L3.26-45.70Q6.40-48 10.82-48L10.82-48L10.82-48Q15.23-48 17.28-44.86L17.28-44.86L17.28-44.86Q18.94-42.37 18.94-38.08L18.94-38.08L18.94-38.08Q18.94-36.22 18.24-33.28L18.24-33.28L18.24-33.28Q14.59-18.05 14.53-12.16L14.53-12.16L14.53-12.16Q14.59-9.34 16.90-8.32L16.90-8.32L16.90-8.32Q17.79-7.94 19.01-7.94L19.01-7.94L19.01-7.94Q24.70-7.94 29.76-14.66L29.76-14.66L29.76-14.66Q27.20-23.62 27.20-35.01L27.20-35.01L27.20-35.01Q27.20-39.23 29.22-41.89L29.22-41.89L29.22-41.89Q31.23-44.54 35.78-44.54L35.78-44.54L35.78-44.54Q39.17-44.54 40.93-42.62L40.93-42.62L40.93-42.62Q42.69-40.70 42.69-37.57L42.69-37.57L42.69-37.57Q42.69-31.10 39.30-21.63L39.30-21.63L39.30-21.63Q38.14-18.43 36.61-15.30L36.61-15.30L36.61-15.30Q39.36-7.87 43.90-7.87L43.90-7.87L43.90-7.87Q49.02-7.87 52.86-14.78L52.86-14.78L52.86-14.78Q55.68-19.84 57.47-28.54L57.47-28.54L57.47-28.54Q52.80-29.18 50.08-32.51L50.08-32.51L50.08-32.51Q47.36-35.84 47.36-39.62L47.36-39.62L47.36-39.62Q47.36-43.39 49.73-45.89L49.73-45.89L49.73-45.89Q52.10-48.38 56.19-48.42L56.19-48.42L56.19-48.42Q60.29-48.45 62.34-45.54L62.34-45.54L62.34-45.54Q64.38-42.62 64.38-37.63L64.38-37.63L64.38-36.35L64.38-36.35Q64.38-35.65 64.32-34.82L64.32-34.82L64.32-34.82Q65.41-35.33 66.18-35.87L66.18-35.87L66.18-35.87Q66.94-36.42 67.71-36.42L67.71-36.42L67.71-36.42Q68.99-36.42 68.99-35.33L68.99-35.33L68.99-35.33Q68.99-33.22 67.62-31.62L67.62-31.62L67.62-31.62Q66.24-30.02 63.94-29.18L63.94-29.18L63.94-29.18Q63.10-21.70 61.70-17.41L61.70-17.41L61.70-17.41Q59.07-9.15 54.78-4.86L54.78-4.86L54.78-4.86Q49.66 0.13 42.18 0.19L42.18 0.19L42.18 0.19Q35.97 0.19 32.06-8.06L32.06-8.06L32.06-8.06Q25.54 0.19 17.22 0.19L17.22 0.19L17.22 0.19Q11.52 0.19 8.16-2.66L8.16-2.66L8.16-2.66Q4.80-5.50 4.80-11.65L4.80-11.65L4.80-11.65Q4.80-13.12 6.43-19.42L6.43-19.42L6.43-19.42Q8.06-25.73 9.02-29.79L9.02-29.79L9.02-29.79Q9.98-33.86 9.98-36.22L9.98-36.22L9.98-36.22Q9.98-41.41 7.36-41.41L7.36-41.41L7.36-41.41Q6.46-41.41 5.73-40.90L5.73-40.90L5.73-40.90Q4.99-40.38 4.26-39.81ZM35.26-39.17L35.26-39.17L35.26-39.17Q33.60-39.17 33.60-33.98L33.60-33.98L33.60-33.98Q33.60-28.80 34.50-23.55L34.50-23.55L34.50-23.55Q36.93-29.89 36.93-35.84L36.93-35.84L36.93-35.84Q36.93-37.12 36.51-38.14L36.51-38.14L36.51-38.14Q36.10-39.17 35.26-39.17ZM56.90-42.82L56.90-42.82L56.90-42.82Q55.55-42.82 55.55-40.70L55.55-40.70L55.55-40.70Q55.55-36.86 58.56-35.14L58.56-35.14L58.56-35.14Q58.82-37.57 58.82-38.40L58.82-38.40L58.82-38.40Q58.82-40.19 58.37-41.28L58.37-41.28L58.37-41.28Q57.86-42.82 56.90-42.82Z" fill="#ff2323"></path></g></g><style>text {
  font-size: 64px;
  font-family: Arial Black;
  dominant-baseline: central;
  text-anchor: middle;
}</style></svg>